<?xml version="1.0" encoding="utf-8"?>
<!-- Generator: Adobe Illustrator 26.3.1, SVG Export Plug-In . SVG Version: 6.00 Build 0)  -->
<svg version="1.1" id="Слой_1" xmlns="http://www.w3.org/2000/svg" xmlns:xlink="http://www.w3.org/1999/xlink" x="0px" y="0px"
	 viewBox="0 0 800 800" style="enable-background:new 0 0 800 800;" xml:space="preserve">
<style type="text/css">
	.st0{fill-rule:evenodd;clip-rule:evenodd;fill:#FFFFFF;}
	.st1{fill-rule:evenodd;clip-rule:evenodd;fill:#2563EB;}
	.st2{fill-rule:evenodd;clip-rule:evenodd;fill:#DC2626;}
</style>
<rect class="st0" width="800" height="800"/>
<g>
	<g transform="translate(1.000000, 0.000000)">
		<path class="st1" d="M184.8,27c-89,0-161.2,72.2-161.2,161.3c0,89.1,72.2,161.3,161.2,161.3c89.1,0,161.3-72.2,161.3-161.3
			C346,99.3,273.8,27,184.8,27L184.8,27z M184.8,292.9c-56.9,0-103.1-46.8-103.1-104.6c0-57.6,46.2-104.5,103.1-104.5
			S288,130.7,288,188.3C288,246,241.7,292.9,184.8,292.9L184.8,292.9z"/>
		<path class="st1" d="M605.4,447.7c-89,0-161.2,72.2-161.2,161.3c0,89.1,72.2,161.3,161.2,161.3c89.1,0,161.3-72.2,161.3-161.3
			C766.7,519.9,694.4,447.7,605.4,447.7L605.4,447.7z M605.4,713.5c-56.9,0-103.1-46.8-103.1-104.6c0-57.6,46.2-104.5,103.1-104.5
			c56.9,0,103.2,46.8,103.2,104.5C708.6,666.7,662.3,713.5,605.4,713.5L605.4,713.5z"/>
		<path class="st2" d="M349.2,492.5l-42.6-42.7L186.1,570.3L65.6,449.8l-42.7,42.7L143.4,613L22.9,733.4l42.7,42.6l120.5-120.4
			l120.5,120.4l42.6-42.6L228.7,613L349.2,492.5z"/>
		<path class="st2" d="M775.1,66.9l-42.9-43L610.9,145.2L489.7,23.9l-42.9,43l121.2,121.2L446.8,309.2l42.9,42.9L610.9,231
			l121.3,121.2l42.9-42.9L653.9,188.1L775.1,66.9z"/>
	</g>
</g>
</svg>
